<svg width="318" height="320" viewBox="0 0 318 320" fill="none" xmlns="http://www.w3.org/2000/svg">
<path d="M260.695 117.228L127.622 250.301C121.457 256.466 112.991 260 104.279 260H35.5643C31.619 260 29.6463 255.233 32.4409 252.438L165.514 119.365C171.678 113.2 180.144 109.666 188.857 109.666H257.489C261.435 109.666 263.407 114.433 260.613 117.228H260.695Z" fill="#0C0C0C"/>
<path d="M278.532 260H208.585C206.448 260 204.311 259.178 202.831 257.616L174.721 229.506C171.515 226.3 171.515 221.122 174.721 217.916L209.735 182.901C212.941 179.696 218.119 179.696 221.325 182.901L284.45 246.027C289.628 251.205 285.93 260 278.697 260H278.532Z" fill="#0C0C0C"/>
<path d="M131.486 100.953L149.486 108.022C150.719 108.515 150.719 110.241 149.486 110.735L131.486 117.803C121.458 121.749 113.485 129.722 109.458 139.831L102.389 157.832C101.896 159.065 100.17 159.065 99.6764 157.832L92.6077 139.831C88.6623 129.804 80.6895 121.831 70.5796 117.803L52.579 110.735C51.3461 110.241 51.3461 108.515 52.579 108.022L70.5796 100.953C80.6073 97.0081 88.5801 89.0352 92.6077 78.9253L99.6764 60.9247C100.17 59.6918 101.896 59.6918 102.389 60.9247L109.458 78.9253C113.403 88.953 121.376 96.9259 131.486 100.953Z" fill="#0C0C0C"/>
</svg>
